<mxfile host="app.diagrams.net" modified="2023-09-18T09:34:54.326Z" agent="Mozilla/5.0 (Windows NT 10.0; Win64; x64) AppleWebKit/537.36 (KHTML, like Gecko) Chrome/117.0.0.0 Safari/537.36" etag="hR4DdiI6mPn43jpopTmj" version="21.7.5" type="google">
  <diagram id="akEowiJKr_ScigKzrRVM" name="Page-1">
    <mxGraphModel grid="1" page="1" gridSize="10" guides="1" tooltips="1" connect="1" arrows="1" fold="1" pageScale="1" pageWidth="689" pageHeight="517" math="0" shadow="0">
      <root>
        <mxCell id="0" />
        <mxCell id="1" parent="0" />
        <mxCell id="lh1tizzmxkAoWYCJBo1o-2" value="Nuevo" style="ellipse;whiteSpace=wrap;html=1;fontSize=17;fontFamily=Ink Free;fillColor=none;strokeColor=#324AB2;fontColor=#324AB2;rounded=0;shadow=0;sketch=1;strokeWidth=2;spacing=20;fontSource=https%3A%2F%2Full-esit-sistemas-operativos.github.io%2Fssoo-apuntes%2Ffonts%2FInkFree.woff;fontStyle=1;spacingBottom=0;" vertex="1" parent="1">
          <mxGeometry x="10" y="10.5" width="120" height="59.5" as="geometry" />
        </mxCell>
        <mxCell id="lh1tizzmxkAoWYCJBo1o-3" value="Terminado" style="ellipse;whiteSpace=wrap;html=1;fontSize=17;fontFamily=Ink Free;fillColor=none;strokeColor=#324AB2;fontColor=#324AB2;rounded=0;shadow=0;sketch=1;strokeWidth=2;spacing=20;fontSource=https%3A%2F%2Full-esit-sistemas-operativos.github.io%2Fssoo-apuntes%2Ffonts%2FInkFree.woff;fontStyle=1;spacingBottom=0;" vertex="1" parent="1">
          <mxGeometry x="560" y="10" width="120" height="59.5" as="geometry" />
        </mxCell>
        <mxCell id="lh1tizzmxkAoWYCJBo1o-4" value="Ejecutando" style="ellipse;whiteSpace=wrap;html=1;fontSize=17;fontFamily=Ink Free;fillColor=none;strokeColor=#324AB2;fontColor=#324AB2;rounded=0;shadow=0;sketch=1;strokeWidth=2;spacing=20;fontSource=https%3A%2F%2Full-esit-sistemas-operativos.github.io%2Fssoo-apuntes%2Ffonts%2FInkFree.woff;fontStyle=1;spacingBottom=0;" vertex="1" parent="1">
          <mxGeometry x="420" y="112.6" width="120" height="59.5" as="geometry" />
        </mxCell>
        <mxCell id="lh1tizzmxkAoWYCJBo1o-5" value="Preparado" style="ellipse;whiteSpace=wrap;html=1;fontSize=17;fontFamily=Ink Free;fillColor=none;strokeColor=#324AB2;fontColor=#324AB2;rounded=0;shadow=0;sketch=1;strokeWidth=2;spacing=20;fontSource=https%3A%2F%2Full-esit-sistemas-operativos.github.io%2Fssoo-apuntes%2Ffonts%2FInkFree.woff;fontStyle=1;spacingBottom=0;verticalAlign=middle;" vertex="1" parent="1">
          <mxGeometry x="149.75" y="112.6" width="120" height="59.5" as="geometry" />
        </mxCell>
        <mxCell id="lh1tizzmxkAoWYCJBo1o-6" value="Esperando" style="ellipse;whiteSpace=wrap;html=1;fontSize=17;fontFamily=Ink Free;fillColor=none;strokeColor=#324AB2;fontColor=#324AB2;rounded=0;shadow=0;sketch=1;strokeWidth=2;spacing=20;fontSource=https%3A%2F%2Full-esit-sistemas-operativos.github.io%2Fssoo-apuntes%2Ffonts%2FInkFree.woff;fontStyle=1;spacingBottom=0;" vertex="1" parent="1">
          <mxGeometry x="285" y="280.5" width="120" height="59.5" as="geometry" />
        </mxCell>
        <mxCell id="lh1tizzmxkAoWYCJBo1o-7" value="E/S o evento&#xa;completado" style="text;strokeColor=none;fillColor=none;align=center;verticalAlign=middle;rounded=0;fontFamily=Ink Free;fontSource=https%3A%2F%2Full-esit-sistemas-operativos.github.io%2Fssoo-apuntes%2Ffonts%2FInkFree.woff;fontStyle=1;fontColor=#324AB2;fontSize=17;spacingBottom=5;" vertex="1" parent="1">
          <mxGeometry x="59.75" y="230" width="210" height="39" as="geometry" />
        </mxCell>
        <mxCell id="lh1tizzmxkAoWYCJBo1o-8" value="a la espera de un&#xa;evento o E/S" style="text;strokeColor=none;fillColor=none;align=center;verticalAlign=middle;rounded=0;fontFamily=Ink Free;fontSource=https%3A%2F%2Full-esit-sistemas-operativos.github.io%2Fssoo-apuntes%2Ffonts%2FInkFree.woff;fontStyle=1;fontColor=#324AB2;fontSize=17;spacingBottom=5;" vertex="1" parent="1">
          <mxGeometry x="440" y="230" width="210" height="40" as="geometry" />
        </mxCell>
        <mxCell id="lh1tizzmxkAoWYCJBo1o-9" value="temporizador" style="text;strokeColor=none;fillColor=none;align=center;verticalAlign=middle;rounded=0;fontFamily=Ink Free;fontSource=https%3A%2F%2Full-esit-sistemas-operativos.github.io%2Fssoo-apuntes%2Ffonts%2FInkFree.woff;fontStyle=1;fontColor=#324AB2;fontSize=17;spacingBottom=5;" vertex="1" parent="1">
          <mxGeometry x="240" y="45" width="210" height="40" as="geometry" />
        </mxCell>
        <mxCell id="lh1tizzmxkAoWYCJBo1o-10" value="admitido" style="text;strokeColor=none;fillColor=none;align=center;verticalAlign=middle;rounded=0;fontFamily=Ink Free;fontSource=https%3A%2F%2Full-esit-sistemas-operativos.github.io%2Fssoo-apuntes%2Ffonts%2FInkFree.woff;fontStyle=1;fontColor=#324AB2;fontSize=17;spacingBottom=5;" vertex="1" parent="1">
          <mxGeometry x="120" y="19.75" width="210" height="40" as="geometry" />
        </mxCell>
        <mxCell id="lh1tizzmxkAoWYCJBo1o-11" value="salida" style="text;strokeColor=none;fillColor=none;align=center;verticalAlign=middle;rounded=0;fontFamily=Ink Free;fontSource=https%3A%2F%2Full-esit-sistemas-operativos.github.io%2Fssoo-apuntes%2Ffonts%2FInkFree.woff;fontStyle=1;fontColor=#324AB2;fontSize=17;spacingBottom=5;" vertex="1" parent="1">
          <mxGeometry x="375" y="19.75" width="210" height="40" as="geometry" />
        </mxCell>
        <mxCell id="lh1tizzmxkAoWYCJBo1o-12" value="asignaciÃ³n por el&#xa;planificador de la CPU" style="text;strokeColor=none;fillColor=none;align=center;verticalAlign=middle;rounded=0;fontFamily=Ink Free;fontSource=https%3A%2F%2Full-esit-sistemas-operativos.github.io%2Fssoo-apuntes%2Ffonts%2FInkFree.woff;fontStyle=1;fontColor=#324AB2;fontSize=17;spacingBottom=5;" vertex="1" parent="1">
          <mxGeometry x="240" y="210" width="210" height="40" as="geometry" />
        </mxCell>
        <mxCell id="lh1tizzmxkAoWYCJBo1o-14" value="" style="endArrow=classic;strokeWidth=2;fontFamily=Ink Free;fontSize=17;sketch=1;endSize=12;endFill=1;startSize=12;startArrow=none;startFill=0;strokeColor=#324AB2;fontColor=#324AB2;fontSource=https%3A%2F%2Full-esit-sistemas-operativos.github.io%2Fssoo-apuntes%2Ffonts%2FInkFree.woff;fontStyle=1;spacingBottom=5;exitX=1;exitY=0.5;exitDx=0;exitDy=0;curved=1;rounded=0;entryX=0.5;entryY=0;entryDx=0;entryDy=0;" edge="1" parent="1" source="lh1tizzmxkAoWYCJBo1o-2" target="lh1tizzmxkAoWYCJBo1o-5">
          <mxGeometry width="50" height="50" relative="1" as="geometry">
            <mxPoint x="40" y="366" as="sourcePoint" />
            <mxPoint x="109" y="190" as="targetPoint" />
            <Array as="points">
              <mxPoint x="200" y="40" />
            </Array>
          </mxGeometry>
        </mxCell>
        <mxCell id="lh1tizzmxkAoWYCJBo1o-15" value="" style="endArrow=classic;strokeWidth=2;fontFamily=Ink Free;fontSize=17;sketch=1;endSize=12;endFill=1;startSize=12;startArrow=none;startFill=0;strokeColor=#324AB2;fontColor=#324AB2;fontSource=https%3A%2F%2Full-esit-sistemas-operativos.github.io%2Fssoo-apuntes%2Ffonts%2FInkFree.woff;fontStyle=1;spacingBottom=5;curved=1;rounded=0;entryX=0.5;entryY=0;entryDx=0;entryDy=0;" edge="1" parent="1" target="lh1tizzmxkAoWYCJBo1o-4">
          <mxGeometry width="50" height="50" relative="1" as="geometry">
            <mxPoint x="560" y="40" as="sourcePoint" />
            <mxPoint x="480" y="113" as="targetPoint" />
            <Array as="points">
              <mxPoint x="490" y="40" />
            </Array>
          </mxGeometry>
        </mxCell>
        <mxCell id="lh1tizzmxkAoWYCJBo1o-16" value="" style="endArrow=classic;strokeWidth=2;fontFamily=Ink Free;fontSize=17;sketch=1;endSize=12;endFill=1;startSize=12;startArrow=none;startFill=0;strokeColor=#324AB2;fontColor=#324AB2;fontSource=https%3A%2F%2Full-esit-sistemas-operativos.github.io%2Fssoo-apuntes%2Ffonts%2FInkFree.woff;fontStyle=1;spacingBottom=5;curved=1;rounded=0;entryX=1;entryY=0.5;entryDx=0;entryDy=0;exitX=0.5;exitY=1;exitDx=0;exitDy=0;" edge="1" parent="1" source="lh1tizzmxkAoWYCJBo1o-4" target="lh1tizzmxkAoWYCJBo1o-6">
          <mxGeometry width="50" height="50" relative="1" as="geometry">
            <mxPoint x="510" y="347" as="sourcePoint" />
            <mxPoint x="430" y="420" as="targetPoint" />
            <Array as="points">
              <mxPoint x="480" y="280" />
            </Array>
          </mxGeometry>
        </mxCell>
        <mxCell id="lh1tizzmxkAoWYCJBo1o-17" value="" style="endArrow=classic;strokeWidth=2;fontFamily=Ink Free;fontSize=17;sketch=1;endSize=12;endFill=1;startSize=12;startArrow=none;startFill=0;strokeColor=#324AB2;fontColor=#324AB2;fontSource=https%3A%2F%2Full-esit-sistemas-operativos.github.io%2Fssoo-apuntes%2Ffonts%2FInkFree.woff;fontStyle=1;spacingBottom=5;curved=1;rounded=0;entryX=1;entryY=0.5;entryDx=0;entryDy=0;exitX=0.5;exitY=1;exitDx=0;exitDy=0;" edge="1" parent="1">
          <mxGeometry width="50" height="50" relative="1" as="geometry">
            <mxPoint x="210" y="172.1" as="sourcePoint" />
            <mxPoint x="285" y="310.1" as="targetPoint" />
            <Array as="points">
              <mxPoint x="210" y="280.1" />
            </Array>
          </mxGeometry>
        </mxCell>
        <mxCell id="lh1tizzmxkAoWYCJBo1o-19" value="" style="endArrow=classic;strokeWidth=2;fontFamily=Ink Free;fontSize=17;sketch=1;endSize=12;endFill=1;startSize=12;startArrow=none;startFill=0;strokeColor=#324AB2;fontColor=#324AB2;fontSource=https%3A%2F%2Full-esit-sistemas-operativos.github.io%2Fssoo-apuntes%2Ffonts%2FInkFree.woff;fontStyle=1;spacingBottom=5;curved=1;rounded=0;entryX=0.5;entryY=1;entryDx=0;entryDy=0;exitX=0.5;exitY=1;exitDx=0;exitDy=0;" edge="1" parent="1" source="lh1tizzmxkAoWYCJBo1o-5" target="lh1tizzmxkAoWYCJBo1o-4">
          <mxGeometry width="50" height="50" relative="1" as="geometry">
            <mxPoint x="210" y="170" as="sourcePoint" />
            <mxPoint x="490" y="190" as="targetPoint" />
            <Array as="points">
              <mxPoint x="340" y="230" />
            </Array>
          </mxGeometry>
        </mxCell>
        <mxCell id="lh1tizzmxkAoWYCJBo1o-21" value="" style="endArrow=classic;strokeWidth=2;fontFamily=Ink Free;fontSize=17;sketch=1;endSize=12;endFill=1;startSize=12;startArrow=none;startFill=0;strokeColor=#324AB2;fontColor=#324AB2;fontSource=https%3A%2F%2Full-esit-sistemas-operativos.github.io%2Fssoo-apuntes%2Ffonts%2FInkFree.woff;fontStyle=1;spacingBottom=5;curved=1;rounded=0;entryX=0.5;entryY=0;entryDx=0;entryDy=0;exitX=0.5;exitY=0;exitDx=0;exitDy=0;" edge="1" parent="1" source="lh1tizzmxkAoWYCJBo1o-4" target="lh1tizzmxkAoWYCJBo1o-5">
          <mxGeometry width="50" height="50" relative="1" as="geometry">
            <mxPoint x="480" y="112.6" as="sourcePoint" />
            <mxPoint x="210" y="112.6" as="targetPoint" />
            <Array as="points">
              <mxPoint x="350" y="54.599999999999994" />
            </Array>
          </mxGeometry>
        </mxCell>
      </root>
    </mxGraphModel>
  </diagram>
</mxfile>
